<?xml version="1.0" encoding="utf-8"?>
<!-- Generator: Adobe Illustrator 28.1.0, SVG Export Plug-In . SVG Version: 6.00 Build 0)  -->
<svg version="1.1" id="Capa_1" xmlns="http://www.w3.org/2000/svg" xmlns:xlink="http://www.w3.org/1999/xlink" x="0px" y="0px"
	 viewBox="0 0 800 800" style="enable-background:new 0 0 800 800;" xml:space="preserve">
<style type="text/css">
	.st0{fill:none;stroke:#FFFFFF;stroke-width:66.6667;stroke-linecap:round;stroke-linejoin:round;stroke-miterlimit:133.3333;}
</style>
<path class="st0" d="M566.7,616.7L555.4,656c-7.9,27.7-11.9,41.6-20,51.9c-7.1,9.1-16.5,16.2-27.2,20.5c-12.1,5-26.5,5-55.4,5H347.1
	c-28.8,0-43.3,0-55.4-5c-10.7-4.4-20.1-11.4-27.2-20.5c-8.1-10.3-12-24.2-20-51.9l-11.2-39.3 M566.7,183.3L555.4,144
	c-7.9-27.7-11.9-41.6-20-51.9c-7.1-9.1-16.5-16.2-27.2-20.5c-12.1-4.9-26.5-4.9-55.4-4.9H347.1c-28.8,0-43.3,0-55.4,4.9
	c-10.7,4.4-20.1,11.4-27.2,20.5c-8.1,10.3-12,24.2-20,51.9l-11.2,39.3 M400,300v100l50,50 M290,616.7h220c37.3,0,56,0,70.3-7.3
	c12.5-6.4,22.7-16.6,29.1-29.1c7.3-14.3,7.3-32.9,7.3-70.3V290c0-37.3,0-56-7.3-70.3c-6.4-12.5-16.6-22.7-29.1-29.1
	c-14.3-7.3-32.9-7.3-70.3-7.3H290c-37.3,0-56,0-70.3,7.3c-12.5,6.4-22.7,16.6-29.1,29.1c-7.3,14.3-7.3,32.9-7.3,70.3v220
	c0,37.3,0,56,7.3,70.3c6.4,12.5,16.6,22.7,29.1,29.1C234,616.7,252.7,616.7,290,616.7z"/>
</svg>
