<?xml version="1.0" encoding="utf-8"?>
<!-- Generator: Adobe Illustrator 28.1.0, SVG Export Plug-In . SVG Version: 6.00 Build 0)  -->
<svg version="1.1" id="Capa_1" xmlns="http://www.w3.org/2000/svg" xmlns:xlink="http://www.w3.org/1999/xlink" x="0px" y="0px"
	 viewBox="0 0 1080 1080" style="enable-background:new 0 0 1080 1080;" xml:space="preserve">
<style type="text/css">
	.st0{display:none;}
	.st1{display:inline;}
	.st2{fill:#0505D1;}
	.st3{fill:#FFFFFF;}
	.st4{display:inline;fill:#FFFFFF;}
	.st5{fill:#282ED1;}
	.st6{fill:#E9DC37;}
	.st7{fill:#FCEE21;}
	.st8{fill:#0505D1;stroke:#000000;stroke-miterlimit:10;}
	.st9{fill:#0505D1;stroke:#FFFFFF;stroke-width:4;stroke-miterlimit:10;}
	.st10{fill:#0505D1;stroke:#FFFFFF;stroke-width:6;stroke-miterlimit:10;}
	.st11{fill:#F4608A;}
	.st12{fill:none;}
</style>
<g id="Capa_2_00000011738154565459041730000008614408051769607045_" class="st0">
	<g class="st1">
		<g>
			<polygon class="st2" points="508.8,263 489.1,206.4 540.2,170.7 586.1,206.5 568.9,263 			"/>
			<path class="st3" d="M540.1,174.4l42.4,33.2L566.7,260h-55.8l-18.2-52.5L540.1,174.4 M540.3,166.9l-3.6,2.5l-47.4,33.2l-3.7,2.6
				l1.5,4.3l18.2,52.5l1.4,4h4.3h55.8h4.5l1.3-4.3l15.9-52.5l1.2-3.9l-3.2-2.5l-42.4-33.2L540.3,166.9L540.3,166.9z"/>
		</g>
		<g>
			<path class="st2" d="M590.2,345.9c-8.7-0.4-30.4-10.1-32.9-11.2l-2.9-1.3l1.5-2.8c26.6-51.3,27.2-51.7,28.2-52.2
				c0.8-0.5,1.8-1.1,57.3-4.3l3.3-0.2l-0.1,3.3c-0.3,7-1.4,30.4-3.7,35.1c-5.9,11.9-38.2,33.6-50.1,33.6
				C590.6,345.9,590.3,345.9,590.2,345.9z"/>
			<path class="st3" d="M641.4,277.1c0,0-1.2,29.4-3.4,33.9c-5.4,11-36.8,31.9-47.4,31.9c-0.1,0-0.2,0-0.3,0
				c-8.3-0.3-31.8-10.9-31.8-10.9s26.2-50.6,27.1-51.1C586.8,280.2,641.4,277.1,641.4,277.1 M647.7,270.8l-6.6,0.4
				c-0.1,0-13.8,0.8-27.5,1.6c-29.1,1.8-29.5,2-31.1,3.1c-1.8,1.1-1.9,1.2-16,28c-6.6,12.6-13.2,25.2-13.2,25.4l-2.9,5.6l5.8,2.6
				c4.1,1.8,24.9,11,34,11.4c0.2,0,0.4,0,0.6,0c8.9,0,23.3-9,29-12.8c4.5-3,19.4-13.5,23.8-22.4c2.4-4.9,3.5-24.9,4-36.3
				L647.7,270.8L647.7,270.8z"/>
		</g>
		<g>
			<path class="st2" d="M650.5,236.2c-43.5-38-43.7-38.7-44.1-39.8c-0.3-0.9-0.7-2,9.5-56.6l0.6-3.2l3.2,0.9
				c6.8,1.9,29.2,8.5,33.2,11.9c10.3,8.6,23.8,46,20.6,57.1c-2.4,8.3-17,27.2-18.7,29.3l-2,2.5L650.5,236.2z"/>
			<path class="st3" d="M618.8,140.4c0,0,28.2,8.1,32.1,11.3c9.5,7.9,22.5,44,19.6,54c-2.3,8-18.1,28.3-18.1,28.3
				s-42.9-37.5-43.2-38.4C608.8,194.2,618.8,140.4,618.8,140.4 M614.1,132.8l-1.2,6.5c0,0.1-2.5,13.6-4.9,27.1
				c-5.1,28.7-5,29.1-4.4,31c0.7,2.1,0.7,2.1,23.4,22.2c10.6,9.4,21.4,18.8,21.5,18.9l4.8,4.2l3.9-5c2.8-3.5,16.7-21.6,19.2-30.3
				c2.4-8.5-2.9-24.8-5.3-31.5c-1.9-5.1-8.5-22.3-16.2-28.8c-4.2-3.5-23.3-9.4-34.3-12.5L614.1,132.8L614.1,132.8z"/>
		</g>
		<g>
			<path class="st2" d="M539,146.2c-1,0-2.1-0.1-50.1-28l-2.8-1.6l1.9-2.7c1.8-2.6,17.9-25.2,24.3-29.4c5.1-3.4,18.9-3.7,24.6-3.7
				c12.1,0,28.4,1.5,34.2,5.7c7,5.1,19.8,25.2,21.3,27.4l1.7,2.7l-2.8,1.5C541.2,146.1,540.1,146.2,539,146.2
				C539.1,146.2,539,146.2,539,146.2z"/>
			<path class="st3" d="M536.9,83.8c13.2,0,27.7,1.8,32.5,5.2c6.8,4.9,20.5,26.6,20.5,26.6s-49.7,27.7-50.7,27.7l0,0
				c-1.4,0-48.7-27.6-48.7-27.6S507.8,91,513.9,87C517.2,84.8,526.6,83.8,536.9,83.8 M536.9,77.8c-9,0-20.9,0.7-26.3,4.2
				c-6.6,4.3-20.9,24.2-25.1,30.2l-3.8,5.3l5.7,3.3c0.1,0.1,12,7,23.9,13.8c25.1,14.4,25.7,14.5,27.6,14.6h0.1h0.1
				c2.1,0,2.2,0,28.6-14.6c12.4-6.8,24.9-13.8,25-13.9l5.5-3.1l-3.4-5.4c-2.4-3.8-14.7-23-22.1-28.3c-3.1-2.2-8.2-3.8-15.7-4.9
				C551.2,78.3,544,77.8,536.9,77.8L536.9,77.8z"/>
		</g>
		<g>
			<path class="st2" d="M420.9,236.5c-4.2-5.6-18-24.5-19.2-29.6c-3-13.1,8.9-51,18.2-57.9c7-5.2,30-11.3,32.6-12l3.1-0.8l0.6,3.1
				c11.6,56.6,11.3,57.3,11,58.3c-0.3,0.9-0.7,2-41.8,39.3l-2.4,2.2L420.9,236.5z"/>
			<path class="st3" d="M453.2,139.9c0,0,11.4,55.8,11.1,56.7c-0.5,1.3-41,38.1-41,38.1s-17.6-23.5-18.7-28.5
				c-2.7-12.1,8.7-48.7,17-54.8C428.4,146.4,453.2,139.9,453.2,139.9 M457.9,132.5l-6.1,1.6c-4.3,1.1-26.3,7.1-33.6,12.5
				c-7.1,5.2-12.7,21.5-14.8,28.2c-1.6,5.2-6.7,22.9-4.5,32.7c1.2,5.4,12.9,21.6,19.7,30.7l4,5.3l4.9-4.4
				c0.1-0.1,10.3-9.3,20.4-18.6c21.5-19.8,21.6-20.1,22.3-22c0.7-2,0.7-2.1-5.2-31.9c-2.8-13.9-5.6-27.9-5.7-28L457.9,132.5
				L457.9,132.5z"/>
		</g>
		<g>
			<path class="st2" d="M488.7,343.8c-13.5-0.7-46.7-22.4-50.8-33.2c-3.1-8.1-2.8-31.9-2.7-34.6l0.1-3.2l3.2,0.2
				c57.6,4.2,58.2,4.7,59.1,5.3c0.8,0.5,1.7,1.2,26.5,50.9l1.5,3l-3.1,1.2c-4.6,1.7-27.6,10.5-33.4,10.5
				C489,343.8,488.8,343.8,488.7,343.8z"/>
			<path class="st3" d="M438.2,276c0,0,56.8,4.2,57.6,4.7c1.1,0.8,25.5,49.8,25.5,49.8s-26.8,10.3-32.3,10.3c-0.1,0-0.1,0-0.2,0
				c-12.4-0.6-44.5-21.6-48.1-31.3C437.7,301.7,438.2,276,438.2,276 M432.3,269.5l-0.1,6.3c-0.1,4.5-0.3,27.3,2.9,35.7
				c1,2.7,5.4,10.4,23.2,21.9c4.6,3,20.2,12.7,30.3,13.2c0.2,0,0.3,0,0.5,0c6,0,26.1-7.5,34.4-10.7l6.2-2.4l-2.9-5.9
				c-0.1-0.1-6.2-12.4-12.4-24.6c-13.2-26.1-13.5-26.3-15.1-27.4c-1.8-1.2-1.8-1.3-32.1-3.6c-14.2-1.1-28.4-2.2-28.5-2.2
				L432.3,269.5L432.3,269.5z"/>
		</g>
	</g>
	<path class="st4" d="M812,439.9c8.5-21,47.3-72.1,47.3-72.1l-63.9-49.1L775,352.2c0,0-7.2,15.3-20.2,6.8c-10.7-7-2.3-17.9-2.3-17.9
		l23.3-38.6l-93-70.8c-1.5,18.8-7.5,38.4-17.9,57.5c-4.5,8.6-15.3,22.9-23.6,31.4c-13.9,14.3-28.4,22.3-37.8,27.2
		c-16.6,8.7-34.4,14-66,14.5c-29.5-1.2-44.2-6.9-63.1-16.1c-9.5-4.6-22.7-13.2-34.5-25.2c-8.7-8.9-21.7-26.1-26.2-35.3
		c-9.9-19.3-13.1-36.5-15.9-54.2l-93.6,71.1c0,0,16.4,27.5,22.1,36.4c2,3.1,9.2,12-0.7,19.4c-13.1,9.9-21-6.8-21-6.8l-19.8-33.1
		l-64,49.5c0,0,41.2,55.5,47.7,72.9c8.3,22,16.7,49.7,7.2,90c0,0,29.6,33.5,11.4,148c-5.7,36,1.5,90.9,20.2,134.5
		c16.9,39.3,38.4,70.7,70.6,91.1c19.5,12.4,46.2,28.9,68.3,42.3c47.4,28.7,93.8,59.5,93.8,59.5s44.8-29.9,92.2-58.6
		c22.1-13.4,47.8-29.3,67.3-41.6c34-21.5,55.8-49.6,72.7-90.1c18.8-45,26.6-97.3,20.8-138.4c-6.1-42.9-12.4-112.3,11.7-148.2
		C804.6,529.3,788.4,491.5,812,439.9z"/>
</g>
<g id="Capa_3">
	<g>
		<g>
			<path class="st5" d="M540.1,405.7"/>
			<path class="st6" d="M540.1,366.7"/>
			<path class="st6" d="M540.1,366.7"/>
			<g>
				<path class="st7" d="M757.3,526.6c-10.9,0-18.9-0.4-23.6-1.2c-17.7-3-29.8-10.3-38.1-23.1c-9.3-14.3,1.9-46.5,5.2-55.3
					c-57.1-14-91.8-43.1-96.6-47.3l-64.1-0.7l-64.1,0.7c-4.9,4.3-39.5,33.3-96.6,47.3c3.3,8.7,14.6,41,5.2,55.3
					c-8.3,12.7-20.4,20-38.1,23.1c-4.7,0.8-12.6,1.2-23.5,1.2l0,0c-18.5,0-39.6-1.2-39.8-1.2l-2.4-0.1l0.6-2.3
					c9-37.7,0.6-59.9-7.6-81.4l-1.2-3.2c-6.4-17-44.5-68.9-44.9-69.5l-1.2-1.6l57.3-44.3l18,30.1c0.1,0.2,6.2,11.1,15.9,11.1
					c3.2,0,6.5-1.2,9.9-3.5c4.2-2.9,6.6-6.3,7.1-10.3c1-7.1-4.1-13.6-4.2-13.6l-0.1-0.1l-20.8-34.5l85.5-65l0.5,3.3
					c2.8,17.6,7.6,31.8,17.3,50.6c3.5,5.8,14.2,21.1,22.7,29.7c11.8,12,27.8,23.2,37,27.6c18.1,8.7,35.7,16,67.6,16.5
					c33.7-0.5,53.9-8.9,67.7-16.1c9.7-5.1,24-14,37.6-27.8c8.2-8.4,18.1-21.5,22.4-29.7c10.3-18.9,15.1-32.5,17.6-50.1l0.5-3.4
					l84.8,64.5L750,336.8l-0.1,0.1c0,0.1-5.2,6.6-4.2,13.6c0.6,3.9,3,7.4,7.1,10.3c3.4,2.3,6.7,3.5,9.9,3.5
					c9.7,0,15.8-10.9,15.8-11.1l18-30.2l57.3,44.3l-1.2,1.6c-0.4,0.5-38.5,52.5-44.9,69.5l-1.2,3.3c-8.1,21.5-16.5,43.7-7.6,81.4
					l0.6,2.3l-2.4,0.1C797,525.4,775.8,526.6,757.3,526.6z"/>
				<path class="st3" d="M393.6,240.7c2.8,17.7,7.6,31.9,17.5,51.2c3.5,5.9,14.3,21.3,23,30.2c11.8,12,28,23.4,37.5,28
					c19,9.2,36.9,16.2,68.5,16.7c31.6-0.5,52-7.6,68.7-16.3c9.3-4.9,24.1-14,38.1-28.2c8.3-8.5,18.2-21.6,22.7-30.2
					c10.4-19.1,15.3-33.1,17.8-50.8l80.7,61.3l-19.8,32.9c0,0-12.7,15.7,3.4,26.8c4,2.8,7.7,3.9,11,3.9c11,0,17.6-12.1,17.6-12.1
					l16.8-28.1l54,41.7c0,0-38.6,52.5-45.1,69.9c-8.3,22-18.4,45.6-8.9,85.8c0,0-21.1,1.2-39.7,1.2c-9.3,0-18-0.3-23.2-1.2
					c-19.7-3.4-30.1-12-36.8-22.2c-10.2-15.5,6.3-55.6,6.3-55.6c-63-14.9-98.6-47.9-98.6-47.9l-64.9-0.7l-64.9,0.7
					c0,0-35.6,33-98.6,47.9c0,0,16.4,40,6.3,55.6c-6.7,10.2-17,18.8-36.8,22.2c-5.2,0.9-13.9,1.2-23.2,1.2
					c-18.7,0-39.7-1.2-39.7-1.2c9.6-40.3-0.6-63.8-8.9-85.8c-6.5-17.4-45.1-69.9-45.1-69.9l54-41.7l16.8,28.1
					c0,0,6.5,12.1,17.6,12.1c3.3,0,7-1.1,11-3.9c16-11.1,3.4-26.8,3.4-26.8l-19.8-32.9L393.6,240.7 M396.5,233.4l-5.3,4.1
					l-81.4,61.9l-2.9,2.2l1.9,3.1l19.8,32.9l0.1,0.2l0.2,0.2c0,0,4.7,5.9,3.7,12.1c-0.5,3.4-2.6,6.3-6.3,8.9c-3,2.1-6,3.2-8.7,3.2
					c-8.5,0-14-9.9-14.1-10v-0.1V352l-16.8-28.1l-2.3-3.9l-3.6,2.8l-54,41.7l-3.1,2.4l2.3,3.1c0.4,0.5,38.3,52.3,44.6,69
					c0.4,1.1,0.8,2.2,1.2,3.3c8,21.2,16.3,43.1,7.5,80.3l-1.1,4.7l4.8,0.3c0.2,0,21.4,1.2,40,1.2c11.1,0,19.1-0.4,23.9-1.2
					c18.3-3.1,30.8-10.7,39.5-23.9c4.8-7.4,5.3-19.8,1.2-36.7c-1.8-7.5-4-14.1-5.5-18.2c30.9-7.9,54.8-20,69.6-28.9
					c13.6-8.2,22.2-15.2,25.1-17.8l63.4-0.7l63.4,0.7c3,2.6,11.5,9.6,25.1,17.8c14.8,9,38.7,21.1,69.6,28.9
					c-1.5,4.1-3.7,10.8-5.5,18.2c-4,17-3.6,29.3,1.2,36.7c8.7,13.2,21.2,20.8,39.5,23.9c4.8,0.8,12.8,1.2,23.9,1.2
					c18.5,0,39.7-1.2,40-1.2l4.8-0.3l-1.1-4.7c-8.8-37.1-0.5-59,7.5-80.3c0.4-1.1,0.8-2.2,1.2-3.3c6.3-16.7,44.2-68.5,44.6-69
					l2.3-3.1l-3.1-2.4l-54-41.7L796,320l-2.3,3.9L776.8,352v0.1v0.1c0,0.1-5.6,10-14.1,10c-2.8,0-5.7-1.1-8.7-3.2
					c-3.7-2.6-5.8-5.5-6.3-8.9c-0.9-6.2,3.7-12.1,3.8-12.1l0.2-0.2l0.1-0.2l19.8-32.9l1.9-3.1l-2.9-2.2l-80.7-61.3l-5.4-4.1l-1,6.7
					c-2.5,17.4-7.2,30.8-17.4,49.4l0,0l0,0c-4.3,8.1-14,20.9-22.1,29.2c-13.3,13.6-27.5,22.5-37.1,27.5
					c-13.6,7.1-33.5,15.4-66.8,15.9c-31.5-0.5-48.9-7.6-66.7-16.3c-9-4.3-24.8-15.3-36.4-27.2c-8.3-8.5-19-23.5-22.4-29.3
					c-9.5-18.6-14.3-32.6-17-49.9L396.5,233.4L396.5,233.4z"/>
			</g>
			<path class="st5" d="M540.1,405.7"/>
			<g>
				<g>
					<polygon class="st8" points="509.5,260.6 490.4,205.4 540.3,170.5 585,205.4 568.3,260.6 					"/>
					<path class="st3" d="M540.2,173l42.4,33.2l-15.9,52.5H511l-18.2-52.5L540.2,173 M540.3,168l-2.4,1.7l-47.4,33.2l-2.5,1.7l1,2.9
						l18.2,52.5l0.9,2.7h2.8h55.8h3l0.9-2.8l15.9-52.5l0.8-2.6l-2.2-1.7l-42.4-33.2L540.3,168L540.3,168z"/>
				</g>
				<g>
					<path class="st9" d="M590.3,342c-8.3-0.3-31-10.5-32-10.9l-0.5-0.2l0.2-0.5c9.8-18.9,26.4-50.7,27.3-51.3
						c1.2-0.7,43.2-3.2,56.1-3.9h0.5v0.5c0,1.2-1.2,29.5-3.4,34.1c-5.5,11.1-36.8,32.2-47.9,32.2C590.7,342,590.4,342,590.3,342z"/>
					<path class="st3" d="M641.5,275.7c0,0-1.2,29.4-3.4,33.9c-5.4,11-36.8,31.9-47.4,31.9c-0.1,0-0.2,0-0.3,0
						c-8.3-0.3-31.8-10.9-31.8-10.9s26.2-50.6,27.1-51.1C586.8,278.8,641.5,275.7,641.5,275.7 M642.5,274.7l-1.1,0.1
						c-0.1,0-13.8,0.8-27.5,1.6c-27.9,1.7-28.4,2.1-28.8,2.3c-0.3,0.2-1.1,0.7-27.4,51.5l-0.5,0.9l1,0.4c1,0.4,23.7,10.6,32.1,11
						c0.1,0,0.2,0,0.4,0c11.2,0,42.8-21.2,48.3-32.5c2.3-4.6,3.4-31.3,3.5-34.3V274.7L642.5,274.7z"/>
				</g>
				<g>
					<path class="st8" d="M651.2,234.1c-43.3-37.9-43.5-38.6-43.8-39.3c-0.2-0.6-0.6-1.8,9.5-56.1l0.4-2.2l2.1,0.6
						c4.8,1.4,28.9,8.4,32.9,11.7c10.2,8.5,23.4,45.2,20.3,56.1c-2.4,8.3-17.8,28.1-18.5,29l-1.3,1.7L651.2,234.1z"/>
					<path class="st3" d="M618.9,139c0,0,28.2,8.1,32.1,11.3c9.5,7.9,22.5,44,19.6,54c-2.3,8-18.1,28.3-18.1,28.3
						s-42.9-37.5-43.2-38.4C608.9,192.8,618.9,139,618.9,139 M615.7,133.9l-0.8,4.3c0,0.1-2.5,13.6-4.9,27.1
						c-5.1,28.2-4.9,28.7-4.5,30c0.5,1.4,0.5,1.6,22.9,21.3c10.6,9.4,21.4,18.8,21.5,18.9l3.2,2.8l2.6-3.3
						c1.7-2.1,16.4-21.1,18.8-29.6c3.4-11.6-10.1-49.1-20.9-58.1c-4.2-3.5-26.8-10.2-33.6-12.1L615.7,133.9L615.7,133.9z"/>
				</g>
				<g>
					<path class="st8" d="M539.1,143.8c-0.7,0-1.9-0.1-49.7-27.9l-1.9-1.1l1.3-1.8c1.8-2.6,17.7-25.1,24-29.2
						c4.9-3.2,18.5-3.6,24.1-3.6c12,0,28,1.5,33.6,5.6c7,5.1,20.5,26.3,21,27.2l1.1,1.8l-1.8,1C540.9,143.7,539.9,143.8,539.1,143.8
						C539.2,143.8,539.1,143.8,539.1,143.8z"/>
					<path class="st3" d="M536.9,82.4c13.2,0,27.7,1.8,32.5,5.2c6.8,4.9,20.5,26.6,20.5,26.6s-49.7,27.7-50.7,27.7l0,0
						c-1.4,0-48.7-27.6-48.7-27.6s17.3-24.6,23.5-28.6C517.3,83.4,526.7,82.4,536.9,82.4 M536.9,78.4c-7.2,0-20,0.5-25.2,3.9
						c-6.4,4.2-21.6,25.5-24.6,29.7l-2.5,3.6l3.8,2.2c0.1,0.1,12,7,23.9,13.8c24.7,14.2,25.4,14.3,26.7,14.3h0.1h0.1
						c1.4,0,1.7,0,27.7-14.3c12.4-6.8,24.9-13.8,25-13.8l3.7-2.1l-2.3-3.6c-1.4-2.3-14.4-22.5-21.5-27.7c-2.8-2-7.7-3.5-14.8-4.6
						C551,78.8,543.9,78.4,536.9,78.4L536.9,78.4z"/>
				</g>
				<g>
					<path class="st8" d="M421.8,234.5c-3-4-17.9-24.1-19-29.2c-2.9-12.9,8.7-50.1,17.8-56.9c6.9-5.1,31.2-11.6,32.2-11.8l2-0.5
						l0.4,2.1c11.5,56.3,11.3,57.1,11,57.8c-0.2,0.6-0.6,1.8-41.5,38.9l-1.6,1.5L421.8,234.5z"/>
					<path class="st3" d="M453.3,138.5c0,0,11.4,55.8,11.1,56.7c-0.5,1.3-41,38.1-41,38.1s-17.6-23.5-18.7-28.5
						c-2.7-12.1,8.7-48.7,17-54.8C428.4,145,453.3,138.5,453.3,138.5 M456.4,133.5l-4.1,1.1c-2.6,0.7-25.8,6.9-32.9,12.2
						c-9.7,7.2-21.7,45.2-18.6,58.9c1.2,5.3,15.1,24.3,19.4,30l2.6,3.5l3.3-3c0.1-0.1,10.3-9.3,20.3-18.6
						c21.1-19.4,21.3-19.9,21.7-21.2c0.5-1.4,0.6-1.6-5.3-30.8c-2.8-13.9-5.6-27.9-5.7-28L456.4,133.5L456.4,133.5z"/>
				</g>
				<g>
					<path class="st8" d="M488.8,341.4c-13.2-0.7-45.9-22-49.9-32.6c-3.1-8.1-2.7-33.2-2.6-34.2v-2.1l2.1,0.2
						c57.4,4.2,58,4.7,58.6,5.1c0.5,0.4,1.5,1.1,26.2,50.6l1,2l-2.1,0.8c-2.8,1.1-27.3,10.4-33,10.4
						C489.1,341.4,488.9,341.4,488.8,341.4z"/>
					<path class="st3" d="M438.2,274.6c0,0,56.8,4.2,57.6,4.7c1.1,0.8,25.5,49.8,25.5,49.8s-26.8,10.3-32.3,10.3c-0.1,0-0.1,0-0.2,0
						c-12.4-0.6-44.5-21.6-48.1-31.3C437.8,300.3,438.2,274.6,438.2,274.6 M434.3,270.3l-0.1,4.2c0,2.7-0.4,26.7,2.8,35
						c4.3,11.3,37.6,33.2,51.7,33.9c0.1,0,0.3,0,0.4,0c5.8,0,27.3-8.1,33.7-10.5l4.1-1.6l-2-3.9c-0.1-0.1-6.2-12.4-12.4-24.6
						c-12.9-25.6-13.4-25.9-14.5-26.7c-1.2-0.8-1.4-1-31.1-3.3c-14.1-1.1-28.4-2.2-28.5-2.2L434.3,270.3L434.3,270.3z"/>
				</g>
			</g>
			<g>
				<path class="st10" d="M602.8,411.7h-1.4H486h-1.4l-1.1,0.9c-43.6,34.1-91.2,42-91.2,42s8,19.8,6.1,39.1
					c-0.8,7.9-9.2,22.5-15.2,27.5c-8.1,6.6-28.5,13.4-38.8,15.2c-8.1,1.4-24.6,1.7-32.8,1.3c-7.4-0.4-28.4-1.4-28.4-1.4l8.7,14.3
					c21.2,30.8,7,83.5,1.8,120.7c-0.5,3.6-1,6.9-1.4,10c-2.4,18.1-1.8,39.8,1.9,62.4c3.8,23.7,10.8,47.4,20.2,68.5
					c17.5,39.3,39.7,65.8,72.1,85.8c21.5,13.3,46.3,28.3,66.5,40.3c46.8,27.6,88.2,54.6,88.6,54.9l2.2,1.5l2.2-1.5
					c0.4-0.3,41.9-27.2,88.6-54.9c20.2-11.9,45.1-27,66.5-40.3c32.4-20,54.6-46.5,72.1-85.8c9.4-21.1,16.4-44.8,20.2-68.5
					c3.7-22.6,4.3-44.2,1.9-62.4c-0.4-2.9-0.8-6-1.3-9.4c-5.3-37.7-28-83.9-4-123l7.4-13.8c0,0-14.5,1.5-18.3,1.8
					c-10.7,0.9-25.8,1.2-36.5,0.3c-12.3-1-35.6-6.7-46.6-16.3c-10.3-8.8-13.8-21.9-15-30.3c-2.2-14.5,8.1-37,8.1-37
					s-41.9-7.2-85.4-41.2L602.8,411.7L602.8,411.7z"/>
			</g>
			<path class="st11" d="M604.2,547.1"/>
			<path class="st11" d="M604.2,800.1"/>
			<path class="st3" d="M487.3,802.7v-93.2c0,0,54.9,3.4,55.1-35.4c0.2-37.3-55.1-33.7-55.1-33.7l0,0v-93.2h117.4
				c69.9,0,126.5,56.6,126.5,126.5c0,57.5-38.4,106.1-91,121.5l45,76.8h-125l-42-69.2"/>
			<line class="st12" x1="470" y1="821.8" x2="470" y2="871.9"/>
			<polyline class="st3" points="470,821.8 507.9,822.2 536.8,871.9 394.7,871.9 394.7,547.1 470,547.1 470,821.8 			"/>
		</g>
	</g>
	<rect x="796.9" y="-110.6" class="st2" width="283.1" height="58.4"/>
	<rect x="796.9" y="-190.1" class="st7" width="283.1" height="53"/>
</g>
</svg>
