<?xml version="1.0" encoding="utf-8"?>
<!-- Generator: Adobe Illustrator 28.1.0, SVG Export Plug-In . SVG Version: 6.00 Build 0)  -->
<svg version="1.1" id="_x32_" xmlns="http://www.w3.org/2000/svg" xmlns:xlink="http://www.w3.org/1999/xlink" x="0px" y="0px"
	 viewBox="0 0 512 512" style="enable-background:new 0 0 512 512;" xml:space="preserve">
<style type="text/css">
	.st0{fill:#FFFFFF;}
</style>
<g>
	<rect x="452" y="200.9" class="st0" width="60" height="129.8"/>
	<path class="st0" d="M473.1,80.8H268.2l0,79.2c47.6,6,84.5,46.6,84.5,95.9c0,49.3-36.9,89.9-84.5,95.9v79.2h204.8
		c21.5,0,38.9-17.4,38.9-38.9v-37h-84.5V176.4H512v-56.7C512,98.3,494.6,80.8,473.1,80.8z"/>
	<path class="st0" d="M307.1,204.9c-10.4-10.4-23.8-17.5-38.9-20.1v142.3c15-2.6,28.5-9.7,38.9-20.1c13.1-13.1,21.2-31.1,21.2-51.1
		C328.3,236,320.2,218,307.1,204.9z"/>
	<path class="st0" d="M204.9,307.1c10.4,10.4,23.8,17.5,38.9,20.1V184.8c-15,2.6-28.5,9.7-38.9,20.1C191.8,218,183.7,236,183.7,256
		C183.7,276,191.8,294,204.9,307.1z"/>
	<rect y="200.9" class="st0" width="60" height="129.8"/>
	<path class="st0" d="M159.2,256c0-49.3,36.9-89.9,84.5-95.9V80.8H38.9C17.4,80.8,0,98.3,0,119.7v56.7h84.5v178.8H0v37
		c0,21.5,17.4,38.9,38.9,38.9h204.9l0-79.2C196.1,345.9,159.2,305.3,159.2,256z"/>
</g>
</svg>
