<?xml version="1.0" encoding="iso-8859-1"?>
<!-- Uploaded to: SVG Repo, www.svgrepo.com, Generator: SVG Repo Mixer Tools -->
<svg height="800px" width="800px" version="1.1" id="Capa_1" xmlns="http://www.w3.org/2000/svg" xmlns:xlink="http://www.w3.org/1999/xlink" 
	 viewBox="0 0 326.219 326.219" xml:space="preserve">
<g>
	<g>
		<path style="fill:#010002;" d="M210.568,23.053l3.748,36.567H109.303l3.748-36.567H77.208L59.346,133.178h61.385
			c3.666-13.696,20.951-23.78,42.376-23.78s38.71,10.084,42.376,23.78h58.644L244.508,23.053H210.568z"/>
		<path style="fill:#010002;" d="M163.107,167.83c-21.424,0-38.71-10.084-42.376-23.78H57.583l-25.15,155.035H89.87l5.439-53.031
			H230.91l5.439,53.031h57.333l-27.62-155.03h-60.58C201.816,157.746,184.537,167.83,163.107,167.83z"/>
		<polygon style="fill:#010002;" points="199.684,23.543 123.94,23.543 121.356,48.742 202.268,48.742 		"/>
		<polygon style="fill:#010002;" points="105.132,256.933 100.808,299.086 225.411,299.086 221.087,256.933 		"/>
		<path style="fill:#010002;" d="M163.107,156.952c14.163,0,26.543-5.515,30.731-12.901h-61.461
			C136.564,151.437,148.943,156.952,163.107,156.952z"/>
		<path style="fill:#010002;" d="M163.107,120.277c-14.163,0-26.543,5.515-30.731,12.901h61.461
			C189.649,125.792,177.275,120.277,163.107,120.277z"/>
		<path style="fill:#010002;" d="M55.386,1.297L0,324.922h326.219L265.394,1.297H55.386z M237.464,309.964H88.755H19.651
			L67.956,12.175h185.662l53.047,297.789H237.464z"/>
	</g>
</g>
</svg>